<?xml version="1.0" encoding="utf-8"?>
<!-- Generator: Adobe Illustrator 21.1.0, SVG Export Plug-In . SVG Version: 6.00 Build 0)  -->
<svg version="1.1" id="Слой_1" xmlns="http://www.w3.org/2000/svg" xmlns:xlink="http://www.w3.org/1999/xlink" x="0px" y="0px"
	 viewBox="0 0 1000 1000" style="enable-background:new 0 0 1000 1000;" xml:space="preserve">
<style type="text/css">
	.st0{fill:#FFFFFF;}
	.st1{fill:#FFFFFF;stroke:#000000;stroke-miterlimit:10;}
</style>
<g>
	<path class="st0" d="M211.3,533c0,0,43.9-3.4,73.7-8.7c24.4-4.4,56-6.6,126.7-20l-8.4,31.2c-0.3,1.4-1.1,2.2-2.6,2.4
		c-88.8,16.8-160.3,26.4-192.5,31.8c-12.4,2.1-21.9-6.3-30.9-21.2c-9.1-14.9-12.3-23.4-12.3-23.4s50.7-7.3,95.8-10.6
		C260.8,514.7,219.3,527,211.3,533z"/>
	<path class="st0" d="M522.8,300.3c-8.9,18.6-46,91.2-47.3,121.9c0,0-0.4,16.1,17.6-15.9s22.6-38.4,22.6-38.4l-1.4,27
		c0,0-35.8,64.5-40.7,64.3c-4.9-0.2-20.5-8.6-27-17.8c-6-8.5-7.1-12.1-6.7-16.5c0-0.5,51.2-124.7,57.3-142.2
		C497.2,282.8,507.8,287.7,522.8,300.3z"/>
	<path class="st0" d="M337.8,465.9c0,0,3.5-16.5,7.6-33c8.6-32.7,37.1-90.9,45.6-108.6c1.2-2.5,0.5-5.5-1.7-7.2
		c-7.8-6-23.7-14.8-23.7-14.8c-5.7,16.7-54.9,135-56,137.7C309.6,439.9,313.2,451.2,337.8,465.9z"/>
	<path class="st0" d="M256.4,745.3c0,0-20.2-8.8-27-17.8s-9.1-16.7-7.9-19.6c1.3-2.9,55.6-145.7,61.6-163.2c0,0,24.5,13.6,28.6,19
		C311.7,563.7,251.7,715.6,256.4,745.3z"/>
	<path class="st0" d="M579.6,568.6c-8.3,11.7-38.2,60.5-38.2,60.5c-0.8-38,25-74.2,25-74.2s-9.8-7.2-19.6-9.7
		c-8.1,8.1-13.4,18.8-13.4,18.8c-0.2-0.7-9.4-8.7-11.2-10.6s-11.1-12.1-30.9,8.2c-19.8,20.3-29.2,75-28.5,78.3
		c0.7,3.3,13.1,15.9,15.1,17.6c2,1.7,8.7,5.2,10.7,2.9c2-2.3,31.7-49.7,31.7-49.7s-5.5,19.2-5.2,21c0.3,1.8,20.5,16.6,22.8,17.9
		c2.4,1.3,8.4,4.8,9.8,1.6c1.3-3.2,38.9-67.5,38.9-67.5L579.6,568.6z M524.8,578.8c-0.9,2.9-32.9,51.9-34.2,52.4
		c-1.3,0.5-3.1-4.1,0.7-16.9c3.8-12.8,19.4-44.2,27.9-47.1C519.1,567.3,525.6,576,524.8,578.8z"/>
	<path class="st0" d="M614.1,359.8c-8.3,11.7-38.2,60.5-38.2,60.5c-0.8-38,25-74.2,25-74.2s-9.8-7.2-19.6-9.7
		c-8.1,8.1-13.4,18.8-13.4,18.8c-0.2-0.7-9.4-8.7-11.2-10.6s-11.1-12.1-30.9,8.2c-19.8,20.3-29.2,75-28.5,78.3
		c0.7,3.3,13.1,15.9,15.1,17.6c2,1.7,8.7,5.2,10.7,2.9c2-2.3,31.7-49.7,31.7-49.7s-5.5,19.2-5.2,21c0.3,1.8,20.5,16.6,22.8,17.9
		s8.4,4.8,9.8,1.6c1.3-3.2,38.9-67.5,38.9-67.5L614.1,359.8z M559.3,370c-0.9,2.9-32.9,51.9-34.2,52.4c-1.3,0.5-3.1-4.1,0.7-16.9
		s19.4-44.2,27.9-47.1C553.6,358.5,560.1,367.2,559.3,370z"/>
	<path class="st0" d="M440.7,595.9c0,0,13,11.3,38.3-14.8l-7.3,26.8c0,0-15.3,7.6-29.7,6.4L440.7,595.9z"/>
	<path class="st0" d="M371.7,598.6c0,0,13.6,15.6,39-10.5l-7.3,26.8c0,0-15.3,7.6-29.7,6.4L371.7,598.6z"/>
	<path class="st0" d="M799.3,475.4c-36.5,4.8-131.1,25.1-320.2,51.6l8.6-30.8c0.5-1.9,2.1-3.3,4-3.7c0,0,206.1-32.4,237.4-37.7
		c0,0,77.5-12.8,92.4-15.2c7.5-1.2,7.7,44.7-6,52.6c0,0-58.3,8.8-58.2,8.1C783.2,486.3,799.3,475.4,799.3,475.4z"/>
	<path class="st0" d="M604,615.5c-8.5,7.2-13.5,3.6-15.4,2.1c-1.8-1.5-2.6-10.7,1.5-25.1c4.1-14.4,24.4-39.9,25.3-38.4
		c0.9,1.4-5.2,13.8-5.1,15.1c0,0,4.4,4.6,15.5,6.3c1.8-3.6,8.7-23.8,7.8-26.4c-0.9-2.6-5.3-6.3-12.4-10.1
		c-7.1-3.7-15.6-7.4-18.5-6.8s-7.4,3.4-20.3,25.1c-12.9,21.7-23.1,56.5-21.6,60.3c0.4,1.2,1.7,2.9,3.2,4.8l5.2-9.4l-1.1,14.2
		c2.2,2.5,4.1,4.5,4.1,4.5c4,4,5.2,4.9,13,10.7c7.7,5.7,16,0.1,23.3-6.8c8.6-8.2,38.5-53.4,38.5-53.4l7.2-31.4
		C654.2,551.1,612.5,608.4,604,615.5z"/>
	<path class="st0" d="M670.5,605.1c-8.5,7.2-13.5,3.6-15.4,2.1c-1.8-1.5-2.6-10.7,1.5-25.1c4.1-14.4,24.4-39.9,25.3-38.4
		c0.9,1.4-5.2,13.8-5.1,15.1c0,0,4,4.8,15.6,6.3c1.8-3.6,8.6-23.7,7.7-26.3c-0.9-2.6-5.3-6.3-12.4-10.1c-7.1-3.7-15.6-7.4-18.5-6.8
		c-2.9,0.7-7.4,3.4-20.3,25.1c-12.9,21.7-23.1,56.5-21.6,60.3c0.2,0.6,0.6,1.3,1.2,2.1l4-7.3l-0.9,11.5c3.2,3.9,7,7.9,7,7.9
		c4,4,5.2,4.9,13,10.7c7.7,5.7,16,0.1,23.3-6.8c8.6-8.2,38.5-53.4,38.5-53.4l7.2-31.4C720.6,540.6,679,597.9,670.5,605.1z"/>
	<path class="st0" d="M782.3,527.6c-0.1-1.8-1.6-5.6-4.7-7.9c-2.7-1.9-21.3-9.2-32.1-8.6c-3.6,0.2-12.5,4.6-17.6,10.2
		c-5.6,6.2-25.6,39.6-30.3,65.2c-0.7,3.8-1.1,7.2-1.1,10.3l1.7-2.4l-1.4,9.6c1.8,13.1,9.7,19,19.4,20.2c13.2,1.7,26.8-4,33.8-11.1
		c6.9-7.1,21.1-29.5,27.1-49.8C783.1,543.1,782.4,529.4,782.3,527.6z M746.1,579.6c-13,25.5-19,21.3-21.2,20.3
		c-2.2-1-6.3-5.9-1.1-20.8c5.3-14.9,16.1-40.6,26.4-50.1c1.9-1.8,6.1-0.9,9.2,2.2C762.5,534.2,759.1,554.1,746.1,579.6z"/>
	<path class="st0" d="M639.4,405.1c-8.5,7.2-14,5.3-15.8,3.8c-1.8-1.5-2.1-12.5,2-26.8c4.1-14.4,22.7-40.5,25.3-38.4
		c1.3,1-5.2,13.8-5.1,15.1c0.1,1.4,13.9,9.4,15.7,5.8c1.8-3.6,8.5-23.3,7.6-25.8c-0.9-2.6-5.3-6.3-12.4-10.1
		c-7.1-3.7-15.6-7.4-18.5-6.8s-7.4,3.4-20.3,25.1c-12.9,21.7-23.1,56.5-21.6,60.3c0.4,1.1,1.6,2.9,3.1,4.7l3.5-6.3l-1,9.3
		c2.9,3.4,5.8,6.4,5.8,6.4c4,4,5.2,4.9,13,10.7c7.7,5.7,12.6,1.7,19.9-5.2c8.6-8.2,41-55.5,41-55.5l8.2-28.6
		C689.7,343,647.9,397.9,639.4,405.1z"/>
	<path class="st0" d="M456.3,627.5c-0.1-0.2-5.2-12.6-10.4-13c0,0,1.9,0,4.9-0.4c-8.3-18.3-14.9-23.9-14.9-23.9s24.6-55.3,27.4-61.2
		c-9.9-15.2-27.9-27.8-27.9-27.8s-7.7,43.4-24,82.6c-16.3,39.1-33.4,91-34.4,95c-1,4-3.2,8.7,0.5,12.7c3.7,4,26.8,27.6,32.2,27.9
		c5.4,0.2,10,3,18.6-7.8c8.6-10.8,38.5-54.8,27.9-83.9C456.4,627.6,456.4,627.6,456.3,627.5z M432.8,635.3
		c-1.7,25.8-18.1,56.6-20.6,58.9c-2.5,2.3-11.3,2.6-10.7-2.7c0.5-5.3,17.8-65.1,25.2-80.2C426.7,611.3,434.5,609.5,432.8,635.3z"/>
	<path class="st0" d="M374.2,621.4c0,0,2.9,0.1,7.1-0.3c4.6-17.7,4-29.4,3.9-31c-0.1-1.8-1.6-5.6-4.7-7.9
		c-2.7-1.9-21.3-9.2-32.1-8.6c-3.6,0.2-12.5,4.6-17.6,10.2c-5.6,6.2-25.6,39.6-30.3,65.2s5.4,36,18.6,37.7
		c13.2,1.7,26.8-4,33.8-11.1c6.9-7.1,21.1-29.5,27.1-49.8c0-0.2,0.1-0.3,0.1-0.5C378.4,624.1,376.4,622.8,374.2,621.4z M348.9,642
		c-13,25.5-19,21.3-21.2,20.3s-6.3-5.9-1.1-20.8s16.1-40.6,26.4-50.1c1.9-1.8,6.1-0.9,9.2,2.2C365.3,596.6,361.9,616.5,348.9,642z"
		/>
	<path class="st0" d="M726.7,256.5c0,0-166.6,22.3-173.2,25.3c-6.6,2.9-23.5,45.7-23.5,45.7c52.6-22.7,149.4-38.1,179.4-44.6
		c-14.3,25.7-32.3,66.2-39.7,105.7l5.2-7.5c0,0-5.1,8.5-7,18.7c-0.4,3.5-0.7,7-0.9,10.4c0,0,19.3,15.3,21.9,17.6
		c1.4-8.1,4.3-43.4,19.3-81c18.2-45.6,38.4-79.5,38.4-79.4C740.5,261.3,726.7,256.5,726.7,256.5z"/>
	<path class="st1" d="M798.7,441.8"/>
	<path class="st1" d="M377.6,509.7"/>
	<path class="st0" d="M275,431.3c0,0-23.9,5.9-22.2,31.1c1.8,26.4,43.4,40.2,103.5,19.9c56.8-19.2,71.2-42.2,72.3-52.1
		c1.1-10-6.9-35-37.5-43.7c-30.6-8.7-46.4,13.5-46.4,13.5s51.1,9.3,52.5,24.8c0.4,4.7-46.6,26-73.8,32.2
		c-27.2,6.2-42.6,1.9-45.1,0.8C275.8,456.8,257.7,452.2,275,431.3z"/>
	<path class="st0" d="M354.9,397.8c0,0,69.3-18.4,89.6-37.6c26.5-25.1,27.2-40.9,26.6-51c-0.9-17.2-4.8-43.3-42.2-51.6
		c-35.7-7.9-95-5.3-152.7,37.9c-27,20.2-41.5,47-41.5,47s1.4,13.1,7.2,19.4c0,0,43.2-32.1,67.8-40.4c0,0-21.2,2.5-34,6.6
		c0,0,30.8-25.9,78.9-33.9s79.4-9,83.4,9.3s-30.1,51.6-71,61.3L354.9,397.8z"/>
	<path class="st0" d="M712.7,362.9c-3.4-8.6-6-29.4-6-29.4c-8,14.9-12.8,38-12.8,38c7.1,38.5,51.2,64.1,51.2,64.1
		c1.9,0.9,5,0.9,7.1,0.7c14.7-0.8,34.4-8.8,34.4-8.8C732,409.9,712.7,362.9,712.7,362.9z"/>
	<path class="st0" d="M695.1,367.8c0,0,39.7-13.8,58.9-26c19.6-12.5,27.6-24.1,27.5-26.7c-0.1-3.2-10.9-12.7-24.5-14.5
		c-11.8,16.2-48.5,39.3-66.8,47.3L695.1,367.8z"/>
</g>
</svg>
